# xmcd
#
# Track frame offsets: 
#        150
#        12577
#        26962
#        43187
#        54050
#        67250
#        83810
#        94892
#        121180
#        132850
#        144002
#
# Disc length: 2047 seconds
#
# Revision: 2
# Processed by: cddbd v1.5.2PL0 Copyright (c) Steve Scherf et al.
# Submitted via: ExactAudioCopy v0.99pb5
#
DISCID=9307fd0b
DTITLE=Omar and the Howlers - Big Leg Beat
DYEAR=1980
DGENRE=Blues
TTITLE0=Caledonia
TTITLE1=Someday Baby
TTITLE2=Blues Parcel Post
TTITLE3=Diesel Don Juan
TTITLE4=St. Louis Bound
TTITLE5=Hoy Hoy Hoy
TTITLE6=I Don't Know Why
TTITLE7=Everybody Knows About My Good Thing
TTITLE8=Roadrunner
TTITLE9=Up The Line
TTITLE10=Big Brown Shoes
EXTD=
EXTT0=
EXTT1=
EXTT2=
EXTT3=
EXTT4=
EXTT5=
EXTT6=
EXTT7=
EXTT8=
EXTT9=
EXTT10=
PLAYORDER=
